<?xml version="1.0" encoding="UTF-8"?>
<!DOCTYPE svg PUBLIC "-//W3C//DTD SVG 1.1//EN" "http://www.w3.org/Graphics/SVG/1.1/DTD/svg11.dtd">
<svg xmlns="http://www.w3.org/2000/svg" version="1.1" width="87px" height="86px" style="shape-rendering:geometricPrecision; text-rendering:geometricPrecision; image-rendering:optimizeQuality; fill-rule:evenodd; clip-rule:evenodd" xmlns:xlink="http://www.w3.org/1999/xlink">
<g><path style="opacity:0.911" fill="#fefffe" d="M 78.5,-0.5 C 79.8333,-0.5 81.1667,-0.5 82.5,-0.5C 83.8758,1.08161 84.8758,2.91494 85.5,5C 82.0464,23.269 78.2131,41.4356 74,59.5C 71.9361,60.5914 69.7695,60.7581 67.5,60C 63.5435,54.5873 59.7101,49.0873 56,43.5C 43.0519,56.5704 30.2186,69.7371 17.5,83C 16.8333,83.1667 16.1667,83.3333 15.5,83.5C 10.5811,80.0875 6.08113,76.0875 2,71.5C 1.33333,69.8333 1.33333,68.1667 2,66.5C 15.1667,54 28.3333,41.5 41.5,29C 35.9127,25.2899 30.4127,21.4565 25,17.5C 24.0561,14.6529 24.5561,12.1529 26.5,10C 44.0292,6.79442 61.3625,3.29442 78.5,-0.5 Z"/></g>
</svg>
