<?xml version="1.0" encoding="UTF-8"?>
<!DOCTYPE svg PUBLIC "-//W3C//DTD SVG 1.1//EN" "http://www.w3.org/Graphics/SVG/1.1/DTD/svg11.dtd">
<svg xmlns="http://www.w3.org/2000/svg" version="1.1" width="86px" height="87px" style="shape-rendering:geometricPrecision; text-rendering:geometricPrecision; image-rendering:optimizeQuality; fill-rule:evenodd; clip-rule:evenodd" xmlns:xlink="http://www.w3.org/1999/xlink">
<g><path style="opacity:0.911" fill="#fefffe" d="M -0.5,7.5 C -0.5,6.16667 -0.5,4.83333 -0.5,3.5C 1.08161,2.12421 2.91494,1.12421 5,0.5C 23.269,3.95356 41.4356,7.78689 59.5,12C 60.5914,14.0639 60.7581,16.2305 60,18.5C 54.5873,22.4565 49.0873,26.2899 43.5,30C 56.5704,42.9481 69.7371,55.7814 83,68.5C 83.1667,69.1667 83.3333,69.8333 83.5,70.5C 80.0875,75.4189 76.0875,79.9189 71.5,84C 69.8333,84.6667 68.1667,84.6667 66.5,84C 54,70.8333 41.5,57.6667 29,44.5C 25.2899,50.0873 21.4565,55.5873 17.5,61C 14.6529,61.9439 12.1529,61.4439 10,59.5C 6.79442,41.9708 3.29442,24.6375 -0.5,7.5 Z"/></g>
</svg>
