<?xml version="1.0" encoding="UTF-8"?>
<!DOCTYPE svg PUBLIC "-//W3C//DTD SVG 1.1//EN" "http://www.w3.org/Graphics/SVG/1.1/DTD/svg11.dtd">
<svg xmlns="http://www.w3.org/2000/svg" version="1.1" width="74px" height="67px" style="shape-rendering:geometricPrecision; text-rendering:geometricPrecision; image-rendering:optimizeQuality; fill-rule:evenodd; clip-rule:evenodd" xmlns:xlink="http://www.w3.org/1999/xlink">
<g><path style="opacity:0.911" fill="#fefffe" d="M 55.5,2.5 C 58.5184,2.33537 61.5184,2.50204 64.5,3C 65.1271,4.73781 65.4604,6.57115 65.5,8.5C 62.657,25.2243 59.4903,41.8909 56,58.5C 53.8471,60.4439 51.3471,60.9439 48.5,60C 45.1237,54.7468 41.6237,49.5802 38,44.5C 32.1667,50.3333 26.3333,56.1667 20.5,62C 19.1667,62.6667 17.8333,62.6667 16.5,62C 13,58.5 9.5,55 6,51.5C 5.33333,50.1667 5.33333,48.8333 6,47.5C 11.8644,41.301 18.0311,35.4677 24.5,30C 18.9154,26.6249 13.4154,23.1249 8,19.5C 7.05611,16.6529 7.55611,14.1529 9.5,12C 25.005,8.99987 40.3383,5.8332 55.5,2.5 Z"/></g>
</svg>
