<?xml version="1.0" encoding="UTF-8"?>
<!DOCTYPE svg PUBLIC "-//W3C//DTD SVG 1.1//EN" "http://www.w3.org/Graphics/SVG/1.1/DTD/svg11.dtd">
<svg xmlns="http://www.w3.org/2000/svg" version="1.1" width="129px" height="92px" style="shape-rendering:geometricPrecision; text-rendering:geometricPrecision; image-rendering:optimizeQuality; fill-rule:evenodd; clip-rule:evenodd" xmlns:xlink="http://www.w3.org/1999/xlink">
<g><path style="opacity:0.929" fill="#fefffe" d="M 51.5,3.5 C 59.5069,3.33362 67.5069,3.50029 75.5,4C 76,4.5 76.5,5 77,5.5C 77.1679,15.1838 77.6679,24.8505 78.5,34.5C 91.9308,30.223 105.597,27.3897 119.5,26C 121.991,28.9684 122.157,32.1351 120,35.5C 101.868,51.2971 84.0343,67.4638 66.5,84C 64.5,84.6667 62.5,84.6667 60.5,84C 42.2812,67.1104 24.1146,50.2771 6,33.5C 4.24552,27.9281 6.24552,25.2614 12,25.5C 24.2565,28.1058 36.4232,31.1058 48.5,34.5C 49.3321,24.8505 49.8321,15.1838 50,5.5C 50.7172,4.9558 51.2172,4.28913 51.5,3.5 Z"/></g>
</svg>
