<?xml version="1.0" encoding="UTF-8"?>
<!DOCTYPE svg PUBLIC "-//W3C//DTD SVG 1.1//EN" "http://www.w3.org/Graphics/SVG/1.1/DTD/svg11.dtd">
<svg xmlns="http://www.w3.org/2000/svg" version="1.1" width="256px" height="256px" style="shape-rendering:geometricPrecision; text-rendering:geometricPrecision; image-rendering:optimizeQuality; fill-rule:evenodd; clip-rule:evenodd" xmlns:xlink="http://www.w3.org/1999/xlink">
<g><path style="opacity:0.981" fill="#fefffe" d="M 91.5,73.5 C 101.324,72.4896 105.491,76.8229 104,86.5C 101.853,93.1049 100.019,99.7716 98.5,106.5C 144.5,106.5 190.5,106.5 236.5,106.5C 236.5,120.5 236.5,134.5 236.5,148.5C 190.165,148.333 143.832,148.5 97.5,149C 101.336,157.827 103.503,166.993 104,176.5C 100.787,181.763 96.2872,183.263 90.5,181C 64.8718,163.697 39.5385,146.03 14.5,128C 14.7591,126.739 15.4258,125.739 16.5,125C 41.6784,107.97 66.6784,90.8036 91.5,73.5 Z"/></g>
</svg>
