<?xml version="1.0" encoding="UTF-8"?>
<!DOCTYPE svg PUBLIC "-//W3C//DTD SVG 1.1//EN" "http://www.w3.org/Graphics/SVG/1.1/DTD/svg11.dtd">
<svg xmlns="http://www.w3.org/2000/svg" version="1.1" width="256px" height="256px" style="shape-rendering:geometricPrecision; text-rendering:geometricPrecision; image-rendering:optimizeQuality; fill-rule:evenodd; clip-rule:evenodd" xmlns:xlink="http://www.w3.org/1999/xlink">
<g><path style="opacity:0.981" fill="#fefffe" d="M 158.5,72.5 C 160.564,72.687 162.564,73.187 164.5,74C 190.128,91.3033 215.462,108.97 240.5,127C 240.241,128.261 239.574,129.261 238.5,130C 213.5,147 188.5,164 163.5,181C 153.667,182.5 149.5,178.333 151,168.5C 153.147,161.895 154.981,155.228 156.5,148.5C 110.5,148.5 64.5,148.5 18.5,148.5C 18.5,134.5 18.5,120.5 18.5,106.5C 64.8345,106.667 111.168,106.5 157.5,106C 154.665,98.3279 152.332,90.4945 150.5,82.5C 150.667,77.0135 153.334,73.6802 158.5,72.5 Z"/></g>
</svg>
